:SAMPLES-PER-SECOND 24
:FULLY-SPECIFIED
:DEGREES
340
root  -2.58055 38.5909 4.51856 -173.649 56.9268 179.835
RightUpLeg  -11.7077 3.10817 -2.41227
RightLeg  29.4198 -11.2491 -7.0169
RightFoot  -19.9605 0.153699 3.83432
RightToes  -2.09809e-008 3.77894e-005 6.81332e-007
Spine  -3.93099 0.832856 6.03568
Spine1  7.65627 1.32683 -3.31197
HEad  -23.3667 35.7491 -14.6993
LeftShoulder1  7.3071 -13.1339 -37.8197
LeftArm  3.57922 19.1547 -32.7651
LeftForeArm  169.319 -67.6354 -156.238
LeftHand  -0.242937 -2.32958 3.85473
RightShoulder  3.32692 5.97667 29.1656
RightArm  15.3742 -24.6185 33.9876
RightForeArm  148.583 75.8297 138.048
RightHand  -0.549876 9.30706 -4.72534
LeftUpLeg  -18.8318 -2.59327 13.707
LeftLeg  24.1162 9.11999 4.76733
LeftFoot  -4.98304 0.943588 -16.3685
LeftToes  1.24773e-006 1.46318e-008 1.32523e-009
341
root  -2.5219 38.6954 4.27036 -173.634 55.2193 179.481
RightUpLeg  -10.9962 2.80184 -2.64525
RightLeg  28.5207 -12.6288 -7.5547
RightFoot  -19.4197 0.185506 4.4959
RightToes  -2.09809e-008 3.77894e-005 6.81332e-007
Spine  -5.55374 0.513265 3.52853
Spine1  8.48328 0.487332 -0.867665
HEad  -22.3573 35.1817 -14.0118
LeftShoulder1  7.34928 -13.1327 -38.065
LeftArm  3.80199 18.888 -32.5217
LeftForeArm  172.311 -67.3773 -156.863
LeftHand  -0.178454 -2.4267 2.85765
RightShoulder  3.41444 5.98167 30.0849
RightArm  13.6513 -26.4914 34.3766
RightForeArm  150.637 75.4688 139.505
RightHand  -0.638979 9.17636 -5.46806
LeftUpLeg  -18.9136 -4.45665 13.3193
LeftLeg  23.1419 9.33189 4.67176
LeftFoot  -4.62377 0.993205 -16.3632
LeftToes  1.24773e-006 1.46318e-008 1.32523e-009
342
root  -2.39561 39.0178 4.06269 -174.088 53.752 178.455
RightUpLeg  -9.53401 2.80099 -3.19649
RightLeg  25.8239 -14.3052 -7.62845
RightFoot  -17.7815 0.153466 4.87121
RightToes  -2.09809e-008 3.77894e-005 6.81332e-007
Spine  -7.6414 0.159104 0.372934
Spine1  9.47277 -0.2998 1.54347
HEad  -20.3366 35.0406 -12.9865
LeftShoulder1  7.02499 -12.7906 -37.0418
LeftArm  4.12339 19.9818 -33.8755
LeftForeArm  174.23 -65.8911 -158.584
LeftHand  -0.148041 -2.64325 2.35321
RightShoulder  3.52764 6.0993 30.8384
RightArm  11.9754 -29.5306 35.4623
RightForeArm  153.167 74.6455 142.178
RightHand  -0.688874 9.19958 -5.85632
LeftUpLeg  -18.3718 -4.45402 12.5059
LeftLeg  20.6945 8.45365 3.8366
LeftFoot  -2.6982 1.24575 -16.1869
LeftToes  1.24773e-006 1.46318e-008 1.32523e-009
343
root  -2.27887 39.3697 3.85595 -174.002 53.2567 178.03
RightUpLeg  -7.74065 2.39697 -3.65067
RightLeg  21.8055 -14.6241 -6.55226
RightFoot  -15.8772 0.0827734 4.80575
RightToes  -2.09809e-008 3.77894e-005 6.81332e-007
Spine  -9.21481 0.202042 -1.17836
Spine1  9.63455 -0.426987 2.73005
HEad  -17.752 35.1731 -11.8567
LeftShoulder1  6.75645 -12.5103 -36.1466
LeftArm  4.87801 21.3999 -34.613
LeftForeArm  173.197 -64.2938 -159.918
LeftHand  -0.167458 -2.38123 2.70397
RightShoulder  3.54594 6.14365 30.859
RightArm  11.0399 -32.4676 37.1669
RightForeArm  154.528 74.0525 143.846
RightHand  -0.615909 9.17881 -5.28507
LeftUpLeg  -17.1549 -2.65727 12.0182
LeftLeg  17.5216 6.06074 2.48422
LeftFoot  -0.969454 1.50233 -16.3964
LeftToes  1.24773e-006 1.46318e-008 1.32523e-009
344
root  -2.2198 39.5771 3.67126 -173.259 53.7023 178.365
RightUpLeg  -6.40628 1.64334 -3.79808
RightLeg  18.107 -13.531 -5.19472
RightFoot  -14.6129 0.0327954 4.6161
RightToes  -2.09809e-008 3.77894e-005 6.81332e-007
Spine  -10.861 0.538101 -0.725425
Spine1  10.1807 0.0297529 2.11191
HEad  -16.1969 35.4946 -11.181
LeftShoulder1  6.4769 -12.1898 -35.247
LeftArm  5.01051 22.0666 -34.6005
LeftForeArm  172.078 -63.4122 -160.538
LeftHand  -0.15347 -2.00148 2.59132
RightShoulder  3.62953 6.26374 31.2672
RightArm  11.3758 -33.2906 37.4805
RightForeArm  155.246 73.8364 144.46
RightHand  -0.559721 9.08564 -4.86721
LeftUpLeg  -16.0178 0.0417132 11.7685
LeftLeg  15.0592 3.63645 1.76951
LeftFoot  -0.272125 1.61645 -16.5706
LeftToes  1.24773e-006 1.46318e-008 1.32523e-009
345
root  -2.2522 39.6084 3.56954 -172.889 54.6602 178.592
RightUpLeg  -5.94986 0.932215 -3.92642
RightLeg  16.3999 -12.0631 -4.51538
RightFoot  -14.3954 0.016138 4.26865
RightToes  -2.09809e-008 3.77894e-005 6.81332e-007
Spine  -11.3858 1.02811 -0.101354
Spine1  10.4058 0.662283 1.37429
HEad  -16.4895 35.7082 -11.7643
LeftShoulder1  6.34877 -12.0155 -34.8956
LeftArm  4.38843 21.8127 -33.925
LeftForeArm  171.665 -63.6753 -160.282
LeftHand  -0.144869 -2.04339 2.44536
RightShoulder  3.6477 6.2865 31.3679
RightArm  12.4777 -32.0754 36.8909
RightForeArm  155.647 73.9197 144.348
RightHand  -0.597452 9.3138 -5.09602
LeftUpLeg  -15.1667 1.46796 11.5019
LeftLeg  13.7537 3.46109 1.82465
LeftFoot  -0.56833 1.54708 -16.2796
LeftToes  1.24773e-006 1.46318e-008 1.32523e-009
346
root  -2.349 39.526 3.56394 -173.001 55.7214 178.636
RightUpLeg  -6.34783 1.85787 -4.06408
RightLeg  16.9932 -12.106 -4.60983
RightFoot  -14.8856 0.020582 3.92801
RightToes  -2.09809e-008 3.77894e-005 6.81332e-007
Spine  -11.5497 1.51768 0.199739
Spine1  11.2444 1.1644 1.2821
HEad  -18.2864 35.6912 -13.7088
LeftShoulder1  6.725 -12.4303 -36.1578
LeftArm  3.34711 20.4146 -31.5882
LeftForeArm  169.85 -65.0834 -158.866
LeftHand  -0.204341 -2.00492 3.39062
RightShoulder  3.51926 6.1544 30.536
RightArm  13.1104 -29.2716 37.0248
RightForeArm  154.511 74.799 142.043
RightHand  -0.630439 9.66142 -5.24666
LeftUpLeg  -14.7061 1.16855 11.384
LeftLeg  13.7024 4.82584 2.24822
LeftFoot  -1.35929 1.4104 -15.9714
LeftToes  1.24773e-006 1.46318e-008 1.32523e-009
347
root  -2.46116 39.4019 3.6258 -172.904 56.3908 179.071
RightUpLeg  -7.19399 3.61965 -3.85115
RightLeg  18.8206 -13.1173 -5.17452
RightFoot  -15.4807 0.0365316 3.91286
RightToes  -2.09809e-008 3.77894e-005 6.81332e-007
Spine  -11.4614 1.68878 1.00477
Spine1  12.3168 1.37989 0.788498
HEad  -20.3473 35.723 -15.7429
LeftShoulder1  7.08341 -12.824 -37.3029
LeftArm  2.02041 19.03 -29.6443
LeftForeArm  167.733 -66.6222 -157.136
LeftHand  -0.26282 -1.70755 4.46987
RightShoulder  3.40388 6.01666 29.8405
RightArm  12.7772 -26.3375 37.5019
RightForeArm  152.561 76.0374 138.225
RightHand  -0.592605 9.66668 -4.95452
LeftUpLeg  -14.9142 -0.452076 11.7811
LeftLeg  14.864 6.96475 2.88821
LeftFoot  -2.16926 1.29192 -15.8612
LeftToes  1.24773e-006 1.46318e-008 1.32523e-009
348
root  -2.55514 39.3167 3.72231 -172.673 56.188 179.805
RightUpLeg  -7.56928 3.68104 -3.31626
RightLeg  20.1034 -13.287 -5.52545
RightFoot  -15.8086 0.0447948 3.89436
RightToes  -2.09809e-008 3.77894e-005 6.81332e-007
Spine  -11.0789 1.30772 1.88433
Spine1  13.1473 1.04352 0.218241
HEad  -21.8235 36.0179 -16.9326
LeftShoulder1  7.0635 -12.8129 -37.2134
LeftArm  0.623779 18.5409 -29.661
LeftForeArm  166.884 -67.3372 -156.274
LeftHand  -0.294325 -1.40737 5.1823
RightShoulder  3.42872 6.03865 30.0218
RightArm  11.5747 -24.782 37.3064
RightForeArm  150.643 76.605 136.001
RightHand  -0.569442 9.49755 -4.82454
LeftUpLeg  -15.4154 -2.41326 12.4877
LeftLeg  16.1963 8.74191 3.4299
LeftFoot  -2.54681 1.24597 -15.9206
LeftToes  1.24773e-006 1.46318e-008 1.32523e-009
